<svg width="39" height="39" viewBox="0 0 39 39" fill="none" xmlns="http://www.w3.org/2000/svg">
<path d="M19.6564 8.09998C16.9361 8.10009 14.3046 9.08777 12.2328 10.8863C10.1609 12.6848 8.78392 15.1768 8.34816 17.9164C7.91241 20.656 8.44633 23.4644 9.85439 25.8391C11.2625 28.2138 13.4528 29.9998 16.0334 30.8776C16.6062 30.9799 16.8211 30.6293 16.8211 30.3224C16.8211 30.0448 16.8067 29.1244 16.8067 28.1455C13.9283 28.686 13.1837 27.4296 12.9546 26.7721C12.7003 26.1327 12.2973 25.566 11.7803 25.1211C11.3793 24.902 10.8065 24.3614 11.766 24.3468C12.1323 24.3873 12.4837 24.5174 12.7903 24.7259C13.0969 24.9345 13.3498 25.2154 13.5274 25.5448C13.6841 25.832 13.8947 26.0848 14.1474 26.2888C14.4 26.4927 14.6896 26.6438 14.9995 26.7334C15.3095 26.823 15.6337 26.8493 15.9537 26.8108C16.2736 26.7723 16.5829 26.6698 16.864 26.5091C16.9136 25.9149 17.1731 25.3593 17.5943 24.9458C15.0453 24.6536 12.3817 23.6454 12.3817 19.1747C12.3656 18.0131 12.7858 16.8891 13.556 16.0335C13.2058 15.0239 13.2468 13.9159 13.6706 12.9361C13.6706 12.9361 14.63 12.6292 16.821 14.1341C18.6956 13.6081 20.6746 13.6081 22.5491 14.1341C24.7401 12.6146 25.6996 12.9361 25.6996 12.9361C26.1235 13.9159 26.1645 15.0239 25.8142 16.0335C26.5867 16.8877 27.0072 18.0126 26.9884 19.1747C26.9884 23.6601 24.3105 24.6536 21.7615 24.9458C22.0349 25.2285 22.2455 25.568 22.3789 25.9411C22.5124 26.3142 22.5655 26.7122 22.5348 27.1082C22.5348 28.6715 22.5205 29.9279 22.5205 30.3225C22.5205 30.6293 22.7353 30.9945 23.3081 30.8776C25.8842 29.9927 28.0682 28.2025 29.4703 25.8266C30.8724 23.4506 31.4012 20.6437 30.9624 17.9068C30.5237 15.1698 29.1458 12.6811 27.0749 10.8847C25.0039 9.0884 22.3747 8.10142 19.6564 8.09998Z" fill="#5D6A7E"/>
<path d="M1.06299 19.5C1.06299 9.30182 9.40226 1 19.6565 1C29.9108 1 38.2503 9.30183 38.2506 19.5C38.2506 29.6985 29.9111 38 19.6565 38C9.40226 38 1.06299 29.6985 1.06299 19.5Z" stroke="#5D6A7E"/>
</svg>
