<svg width="39" height="39" viewBox="0 0 39 39" fill="none" xmlns="http://www.w3.org/2000/svg">
<path d="M38.0631 19.5C38.0631 29.7149 29.7407 38 19.4693 38C9.1979 38 0.875488 29.7149 0.875488 19.5C0.875488 9.28505 9.1979 1 19.4693 1C29.7407 1 38.0631 9.28505 38.0631 19.5Z" stroke="#5D6A7E" stroke-miterlimit="10"/>
<path d="M25.1976 15.3825C26.0764 15.3825 26.7887 14.6738 26.7887 13.7996C26.7887 12.9254 26.0764 12.2166 25.1976 12.2166C24.3188 12.2166 23.6064 12.9254 23.6064 13.7996C23.6064 14.6738 24.3188 15.3825 25.1976 15.3825Z" fill="#5D6A7E"/>
<path d="M19.4691 14.4333C18.4621 14.4333 17.4777 14.7304 16.6403 15.2872C15.803 15.8439 15.1504 16.6352 14.765 17.561C14.3796 18.4868 14.2788 19.5056 14.4753 20.4884C14.6717 21.4712 15.1567 22.374 15.8688 23.0826C16.5808 23.7912 17.4881 24.2738 18.4758 24.4693C19.4635 24.6648 20.4873 24.5644 21.4176 24.1809C22.348 23.7975 23.1432 23.1481 23.7027 22.3148C24.2622 21.4816 24.5608 20.502 24.5608 19.5C24.5608 18.1562 24.0244 16.8675 23.0695 15.9173C22.1146 14.9671 20.8195 14.4333 19.4691 14.4333ZM19.4691 22.0333C18.9656 22.0333 18.4734 21.8847 18.0547 21.6063C17.6361 21.328 17.3098 20.9323 17.1171 20.4694C16.9244 20.0065 16.874 19.4971 16.9722 19.0057C17.0704 18.5143 17.3129 18.0629 17.6689 17.7086C18.025 17.3543 18.4786 17.113 18.9725 17.0153C19.4663 16.9175 19.9782 16.9677 20.4434 17.1595C20.9086 17.3512 21.3062 17.6759 21.5859 18.0925C21.8657 18.5091 22.015 18.9989 22.015 19.5C22.015 20.1718 21.7468 20.8162 21.2693 21.2913C20.7919 21.7664 20.1443 22.0333 19.4691 22.0333Z" fill="#5D6A7E"/>
<path d="M13.1049 10.319H25.8341C27.4216 10.319 28.7005 11.5984 28.7005 13.1667V25.8333C28.7005 27.4016 27.4216 28.681 25.8341 28.681H13.1049C11.5174 28.681 10.2385 27.4016 10.2385 25.8333V13.1667C10.2385 11.5984 11.5174 10.319 13.1049 10.319Z" stroke="#5D6A7E" stroke-width="1.90469" stroke-miterlimit="10"/>
</svg>
