<svg width="39" height="39" viewBox="0 0 39 39" fill="none" xmlns="http://www.w3.org/2000/svg">
<path d="M0.6875 19.5C0.6875 9.30182 9.02677 1 19.281 1C29.5353 1 37.8749 9.30183 37.8752 19.5C37.8752 29.6985 29.5356 38 19.281 38C9.02677 38 0.6875 29.6985 0.6875 19.5Z" stroke="#5D6A7E"/>
<path d="M9.35254 15.7H13.9351V26.34H9.35254V15.7Z" fill="#5D6A7E"/>
<path d="M11.6438 14.1789C12.9092 14.1789 13.9351 13.1583 13.9351 11.8994C13.9351 10.6405 12.9092 9.62 11.6438 9.62C10.3784 9.62 9.35254 10.6405 9.35254 11.8994C9.35254 13.1583 10.3784 14.1789 11.6438 14.1789Z" fill="#5D6A7E"/>
<path d="M25.2931 15.7C24.3861 15.7 23.6176 15.8487 22.9859 16.1458C22.3549 16.4432 21.7313 16.9378 21.1144 17.63V15.9351H16.9902V26.34H21.419V21.3432C21.419 20.396 21.586 19.74 21.9198 19.374C22.2536 19.0083 22.6883 18.8254 23.2253 18.8254C23.7113 18.8254 24.0885 18.961 24.3572 19.2321C24.6258 19.5032 24.7595 19.9652 24.7595 20.6186V26.34H29.2103V19.7269C29.2103 18.3552 28.8636 17.3411 28.1706 16.6846C27.4785 16.028 26.5187 15.7 25.2931 15.7Z" fill="#5D6A7E"/>
</svg>
