<svg width="39" height="39" viewBox="0 0 39 39" fill="none" xmlns="http://www.w3.org/2000/svg">
<path d="M25.1931 21.7914C24.9629 21.6775 23.4666 20.9944 23.2364 20.8805C23.0062 20.7666 22.776 20.7666 22.5458 20.9944C22.3156 21.2221 21.8552 21.9052 21.6249 22.1329C21.5098 22.3607 21.2796 22.3607 21.0494 22.2468C20.2437 21.9052 19.438 21.4498 18.7474 20.8805C18.1719 20.3112 17.5964 19.6281 17.136 18.9449C17.0209 18.7172 17.136 18.4895 17.2511 18.3756C17.3662 18.2618 17.4813 18.0341 17.7115 17.9202C17.8266 17.8063 17.9417 17.5786 17.9417 17.4648C18.0568 17.3509 18.0568 17.1232 17.9417 17.0093C17.8266 16.8955 17.2511 15.5292 17.0209 14.9599C16.9058 14.1629 16.6756 14.1629 16.4453 14.1629H15.8698C15.6396 14.1629 15.2943 14.3906 15.1792 14.5045C14.4886 15.1876 14.1433 15.9846 14.1433 16.8955C14.2584 17.9202 14.6037 18.9449 15.2943 19.8558C16.5604 21.6775 18.1719 23.1577 20.1286 24.0685C20.7041 24.2962 21.1645 24.5239 21.7401 24.6378C22.3156 24.8655 22.8911 24.8655 23.5817 24.7517C24.3874 24.6378 25.078 24.0685 25.5384 23.3854C25.7686 22.9299 25.7686 22.4745 25.6535 22.0191L25.1931 21.7914ZM28.0707 11.4303C23.5817 6.98986 16.3302 6.98986 11.8413 11.4303C8.15798 15.0738 7.46737 20.6528 9.99962 25.0932L8.38818 30.9L14.4886 29.306C16.2151 30.2168 18.0568 30.6723 19.8984 30.6723C26.229 30.6723 31.2935 25.6625 31.2935 19.4004C31.4086 16.4401 30.1425 13.5936 28.0707 11.4303ZM24.9629 27.3704C23.4666 28.2812 21.7401 28.8505 19.8984 28.8505C18.1719 28.8505 16.5604 28.3951 15.0641 27.5981L14.7188 27.3704L11.1506 28.2813L12.0715 24.8655L11.8413 24.5239C9.0788 19.9696 10.46 14.2768 14.949 11.4303C19.438 8.58387 25.1931 10.064 27.9556 14.3906C30.718 18.8311 29.4519 24.6378 24.9629 27.3704Z" fill="#5D6A7E"/>
<path d="M1.25049 19.5C1.25049 9.30182 9.58976 1 19.844 1C30.0983 1 38.4378 9.30183 38.4381 19.5C38.4381 29.6985 30.0986 38 19.844 38C9.58976 38 1.25049 29.6985 1.25049 19.5Z" stroke="#5D6A7E"/>
</svg>
