<svg width="39" height="39" viewBox="0 0 39 39" fill="none" xmlns="http://www.w3.org/2000/svg">
<path d="M0.5 19.5C0.5 9.30182 8.83927 1 19.0935 1C29.3478 1 37.6877 9.30184 37.6877 19.5C37.6877 29.6982 29.3481 38 19.0935 38C8.83927 38 0.5 29.6982 0.5 19.5Z" stroke="#5D6A7E"/>
<path d="M26.731 12.7594C26.731 12.7594 24.5732 12.4471 18.9628 12.4471C13.3326 12.4471 11.3512 12.7594 11.3512 12.7594C11.0193 12.7594 10.6908 12.8244 10.3842 12.9507C10.0776 13.077 9.79902 13.2622 9.56436 13.4957C9.32971 13.7292 9.14357 14.0063 9.01658 14.3114C8.88958 14.6165 8.82422 14.9434 8.82422 15.2736V23.5699C8.82426 23.9001 8.88965 24.227 9.01667 24.5321C9.14368 24.8371 9.32982 25.1142 9.56447 25.3477C9.79912 25.5811 10.0777 25.7663 10.3842 25.8926C10.6908 26.0189 11.0194 26.0839 11.3512 26.0838C11.3512 26.0838 13.3326 26.3962 18.969 26.3962C24.5728 26.3962 26.7307 26.0838 26.7307 26.0838C27.4008 26.0838 28.0434 25.819 28.5173 25.3476C28.9912 24.8761 29.2575 24.2367 29.2576 23.5699V15.2736C29.2576 14.6068 28.9914 13.9673 28.5176 13.4958C28.0438 13.0243 27.4011 12.7594 26.731 12.7594ZM15.9478 23.4028V15.4854L22.8384 19.4438L15.9478 23.4028Z" fill="#5D6A7E"/>
</svg>
